<?xml version="1.0" encoding="utf-8"?>
<!-- Generator: Adobe Illustrator 18.1.0, SVG Export Plug-In . SVG Version: 6.00 Build 0)  -->
<svg version="1.1" id="Layer_3" xmlns="http://www.w3.org/2000/svg" xmlns:xlink="http://www.w3.org/1999/xlink" x="0px" y="0px"
	 viewBox="0 0 486 485.5" enable-background="new 0 0 486 485.5" xml:space="preserve">
<path fill="#222222" d="M468,341.5l-18-153l-18-18H243H54l-18,18l-18,153l-18,36l36,36h18c0,0,16.7-125.8,63-117
	c61.3,11.6,76.3,121.7,79.9,168.3c0.3,7,0.7,13.9,1.1,20.7h9v-9h72v9h9c0.5-8.3,1-16.8,1.5-25.6c4.3-49,20.2-152.2,79.5-163.4
	c46.3-8.8,63,117,63,117h18l36-36L468,341.5z"/>
<path fill="#A5A5A5" d="M197.3,470.3c0.2,5.3,0.4,10.4,0.7,15.2C198,485.5,197.9,479.7,197.3,470.3z"/>
<path fill="#999999" d="M197.3,470.3c-2.8-42.8-16.5-161.7-80.3-173.8c-46.3-8.8-63,117-63,117l144,72
	C197.7,480.6,197.5,475.5,197.3,470.3z"/>
<path fill="#315D72" d="M279,476.5v9h9c5.6-88-12.6-255,148.5-261l13.5,189l36-36l-18-36l-18-153l-18-18H243H54l-18,18l-18,153
	l-18,36l36,36l13.5-189c161.1,6,142.9,172.8,148.5,261h9v-9"/>
<polygon fill="#222222" points="243,188.5 81,188.5 81,197.5 207,224.5 207,476.5 243,476.5 279,476.5 279,224.5 405,197.5 
	405,188.5 "/>
<path fill="#A5A5A5" d="M288.7,470.3c-0.2,5.3-0.4,10.4-0.7,15.2C288,485.5,288.1,479.7,288.7,470.3z"/>
<path fill="#999999" d="M288.7,470.3c2.8-42.8,16.5-161.7,80.3-173.8c46.3-8.8,63,117,63,117l-144,72
	C288.3,480.6,288.5,475.5,288.7,470.3z"/>
<path fill="#999999" d="M243,0C147.1,0,67.9,56.5,55.7,139.5h374.7C418.1,56.5,338.9,0,243,0z"/>
<path fill="#999999" d="M54,170.5h189h189c0,0,0-8.9,0-9H54C54,161.6,54,170.5,54,170.5z"/>
<path fill="#999999" d="M55.1,143.5c-0.5,4.4-0.9,9-1,14h377.9c-0.1-5-0.5-9.6-1-14H55.1z"/>
<path fill="#222222" d="M430.3,139.5H55.7c-0.2,1-0.4,2.5-0.6,4h375.9C430.8,142,430.6,140.5,430.3,139.5z"/>
<path fill="#222222" d="M54,161.5h378c0-1.5,0-3-0.1-4H54.1C54,158.5,54,160,54,161.5z"/>
<polygon fill="#222222" points="220.5,150 234,145.5 234,154.5 "/>
<polygon fill="#222222" points="265.5,150 252,145.5 252,154.5 "/>
</svg>
